<svg width="32" height="32" viewBox="0 0 32 32" fill="none" xmlns="http://www.w3.org/2000/svg">
  <!-- Split Background -->
  <rect width="16" height="32" fill="#10B981"/>
  <rect x="16" width="16" height="32" fill="#064E3B"/>
  
  <!-- Subtle Grid on right side -->
  <path d="M16 8H32M16 16H32M16 24H32M20 0V32M28 0V32" stroke="#D97706" stroke-width="0.2" stroke-opacity="0.3"/>

  <!-- Face Profile (Simplified for 32x32) -->
  <path d="M12 6C10 6 8 8 7 10C6 12 6 14 7 16C8 18 10 20 12 20V26H14V20C16 20 18 18 19 16C20 14 20 12 19 10C18 8 16 6 14 6H12Z" fill="white" fill-opacity="0.9"/>
  
  <!-- DNA Helix (Simplified) -->
  <path d="M10 8C12 10 14 12 10 14C6 16 8 18 10 20" stroke="#D97706" stroke-width="1.5" stroke-linecap="round"/>
  <path d="M14 8C12 10 10 12 14 14C18 16 16 18 14 20" stroke="#F59E0B" stroke-width="1.5" stroke-linecap="round"/>

  <!-- Heartbeat Line -->
  <path d="M0 16H8L10 10L13 22L15 14L17 18H32" stroke="white" stroke-width="1.2" stroke-linejoin="round"/>
</svg>
